<?xml version="1.0" encoding="UTF-8" standalone="no"?>
<svg
   xmlns:dc="http://purl.org/dc/elements/1.1/"
   xmlns:cc="http://creativecommons.org/ns#"
   xmlns:rdf="http://www.w3.org/1999/02/22-rdf-syntax-ns#"
   xmlns:svg="http://www.w3.org/2000/svg"
   xmlns="http://www.w3.org/2000/svg"
   xmlns:sodipodi="http://sodipodi.sourceforge.net/DTD/sodipodi-0.dtd"
   xmlns:inkscape="http://www.inkscape.org/namespaces/inkscape"
   width="713.37427"
   height="997.39996"
   viewBox="0 0 28.534971 39.895999"
   id="svg2"
   version="1.1"
   inkscape:version="0.48.4 r9939"
   sodipodi:docname="Ajax.svg">
  <metadata
     id="metadata12">
    <rdf:RDF>
      <cc:Work
         rdf:about="">
        <dc:format>image/svg+xml</dc:format>
        <dc:type
           rdf:resource="http://purl.org/dc/dcmitype/StillImage" />
      </cc:Work>
    </rdf:RDF>
  </metadata>
  <defs
     id="defs10" />
  <sodipodi:namedview
     pagecolor="#ffffff"
     bordercolor="#666666"
     borderopacity="1"
     objecttolerance="10"
     gridtolerance="10"
     guidetolerance="10"
     inkscape:pageopacity="0"
     inkscape:pageshadow="2"
     inkscape:window-width="1280"
     inkscape:window-height="1001"
     id="namedview8"
     showgrid="false"
     fit-margin-top="0.2"
     fit-margin-left="0.2"
     fit-margin-right="0.2"
     fit-margin-bottom="0.2"
     inkscape:zoom="0.316"
     inkscape:cx="374.52772"
     inkscape:cy="507.38322"
     inkscape:window-x="-8"
     inkscape:window-y="-8"
     inkscape:window-maximized="1"
     inkscape:current-layer="svg2" />
  <path
     style="fill:#006a4e;stroke:none"
     d="m 2.5736764,0.008 c -0.13871,0 -0.14043,0.01791 -0.16875,0.13125 -0.02077,0.083148 -0.00254,0.19129 -0.0375,0.26125 -0.03218,0.064408 -0.07039,0.11776 -0.0925,0.20625 -0.02302,0.092148 -0.02484,0.22558 -0.1125,0.26125 -0.157572,0.12614 -0.089,0.09265 -0.05625,0.22375 0.0074,0.029608 0.09544,0.20458 0.1125,0.1875 0.01909,-0.019104 0.05625,-0.00426 0.05625,-0.16875 0,-0.10224 0.063606,-0.17386 0.18625,-0.1125 0.077276,0.03866 0.112225,0.0471 0.22375,0.075 0.087433,0.021872 0.18068,0.06753 0.2425,0.15 0.060209,0.120496 0.09611,0.20183 0.16875,0.29875 0.03755,0.050104 0.111251,0.11349 0.11125,0.18625 0,0.08385 -0.05494,0.18762 -0.14875,0.09375 -0.071884,-0.07193 -0.16893,-0.11112 -0.26125,-0.01875 -0.030649,0.030668 -0.09787,0.14266 -0.15,0.16875 -0.017643,0.00882 -0.18425,0.1267 -0.18625,0.13 -0.024598,0.041024 -0.21262,0.17918 -0.22375,0.22375 -0.01655,0.06612 -0.018749,0.18679 -0.01875,0.28125 0,0.102772 7.6e-4,0.22334 -0.1125,0.28 -0.103392,0.05175 -0.273647,0.02214 -0.41,0.05625 -0.103315,0.02584 -0.17034,0.06577 -0.26125,0.11125 -0.035635,0.01783 -0.26952,0.07054 -0.28,0.1125 -0.02188,0.087592 -0.05538,0.16398 -0.075,0.2425 -0.02786,0.1115 -0.02146,0.10702 0.01875,0.1875 0.03468,0.069408 0.10398,0.107762 0.075,0.22375 -0.00846,0.033876 -0.03783,0.21445 -0.075,0.22375 -0.014052,0.00352 -0.25404871,0.02727 -0.26124871,0.05625 -0.01409,0.0564 -0.02038,0.1707 -0.05625,0.2425 -0.01072,0.021444 -0.04111,0.2549 -0.05625,0.2625 -0.047955,0.023992 -0.148751,0.06097 -0.14875,0.13 0,0.10798 -0.01091,0.1753 0.05625,0.2425 0.05445,0.054484 0.073751,0.09205 0.07375,0.20625 0,0.064704 -0.02642,0.21605 0.01875,0.26125 0.018648,0.018664 0.16525,0.14912 0.16875,0.15 0.11576871,0.02896 0.12098871,0.00906 0.20499871,-0.075 0.12685,-0.126936 0.08627,0.05782 0.1675,0.0375 0.037873,-0.00947 0.14771,-0.112504 0.1875,-0.1125 0.19482,0 0.050367,0.06209 0.1675,0.15 0.050782,0.03811 0.14493,0.06989 0.205,0.13 0.040186,0.04021 0.15549,0.08854 0.1875,0.13125 0.043416,0.05792 0.09282,0.09278 0.14875,0.14875 0.020781,0.020796 0.16152,0.26125 0.205,0.26125 0.04862,0.04865 0.07609,0.09375 0.15,0.09375 0.075799,0 0.2287,0.05514 0.205,0.15 -0.01656,0.066304 -0.0982,0.1773 -0.05625,0.26125 0.031599,0.063236 0.1046,0.16082 0.20625,0.18625 0.17559,0.043928 0.04692,0.06685 0.14875,0.16875 0.056396,0.05642 0.14959,0.07539 0.18625,0.14875 0.03442,0.068884 0.02183,0.29389 0.05625,0.225 0.056531,-0.11313 0.07687,-0.075 0.22375,-0.075 0.087831,0 0.20623,0.00619 0.24375,0.05625 0.04868,0.064948 0.04887,0.204996 0.13,0.205 0.048872,0 0.26999,0.02877 0.29875,0 0.060619,-0.06066 0.097468,-0.13815 0.205,-0.11125 0.010542,0.00264 0.243749,0.06155 0.24375,-0.01875 0,-0.14357 0.00124,-0.16058 0.13,-0.225 0.1209,-0.060476 0.03509,0.03504 0.1125,0.1125 0.05504,0.055076 0.092499,0.11084 0.0925,0.205 0,0.083916 0.02547,0.225 -0.01875,0.29875 -0.01718,0.028649 -0.0404,0.08545 -0.05375,0.1425 -0.0154,0.06473 -0.01748,0.12999 0.0175,0.15625 0.063897,0.047948 0.14999,0.13368 0.18625,0.20625 0.068651,0.13739 0.14087,0.02957 0.22375,0.1125 0.064662,0.064704 0.1231,0.18278 0.205,0.22375 0.063802,0.0319 0.18762,6.8e-4 0.26125,0.0375 0.056408,0.02822 0.14432,0.04603 0.20625,0.0925 0.05619,0.042172 0.17063,0.15 0,0.15 -0.122591,0 -0.225001,0.026336 -0.225,0.1675 0,0.100996 0.040593,0.20625 -0.07375,0.20625 -0.266748,0 -0.0239,5.2e-4 -0.05625,0.13 -0.030826,0.12338 -0.129536,0.11278 -0.28,0.0375 -0.025683,-0.01285 -0.19038,-0.1363 -0.22375,-0.11125 -0.037628,0.028236 -0.17493,0.15183 -0.20625,0.1675 -0.09439,0.04722 -0.083568,-0.0132 -0.205,-0.0375 -0.154966,-0.03101 -0.170899,-0.07542 -0.28,-0.13 -0.09423,-0.0471 -0.203557,-0.0375 -0.3175,-0.0375 l -0.28,0 c -0.136813,0 -0.13933,0.05025 -0.26125,0.11125 -0.10313,0.0516 -0.0917,0.00615 -0.18625,-0.0175 -0.08495,-0.02125 -0.1803,-0.0735 -0.26125,-0.09375 -0.073117,-0.0183 -0.16605,0 -0.2425,0 -0.0274,0 -0.06326,-0.01592 -0.1,-0.035 -4.12e-4,3.08e-4 -7.86e-4,8.9e-4 -0.00125,0.00125 -0.07021,-0.03664 -0.14324,-0.08915 -0.17,-0.08625 -0.00938,0.00101 -0.01325,0.00834 -0.00875,0.02625 0.01893,0.03788 0.04471,0.09006 0.055,0.13125 0.0019,0.00751 0.0035,0.0148 0.005,0.0225 0.0028,0.01437 0.00445,0.02892 0.00625,0.04375 0.0018,0.01551 0.00275,0.03159 0.00375,0.0475 0.00338,0.054098 0.00375,0.10999 0.00375,0.16625 0,0.108252 -0.01875,0.159106 -0.01875,0.26125 0,0.09414 0.04553,0.172824 0.01875,0.28 -0.03006,0.12032 0.04344,0.137726 0.01875,0.26125 -0.019079,0.09546 -0.09981,0.14426 -0.18625,0.1875 -0.07078,0.03542 -0.148749,0.13281 -0.14875,0.22375 0,0.08113 0.00329,0.11195 0.00375,0.11875 -0.00243,-0.005 -0.0155,-0.04375 -0.06,-0.04375 -0.170927,0 -0.164247,0.05168 -0.28,0.1675 -0.06505,0.06513 -0.05625,0.12823 -0.05625,0.24375 0,0.110406 -0.02933,0.215286 -0.1125,0.11125 -0.050532,-0.0632 -0.20413,-0.01397 -0.22375,-0.0925 -0.01263,-0.05055 -0.02115,-0.18988 -0.05625,-0.225 -0.056306,-0.05634 -0.08995,-0.223746 -0.18625,-0.22375 -0.112068,0 -0.2789,-0.0199 -0.355,0.05625 -0.01628,0.01629 -0.04336,0.0244 -0.0725,0.03 -0.06604,0.0129 -0.14276,0.0124 -0.1325,0.06375 0.00881,0.04406 0.02156,0.07744 0.04125,0.11875 0.00921,0.01972 0.02083,0.04164 0.03375,0.0675 0.04379,0.08763 0.07375,0.14688 0.07375,0.2425 0,0.19706 -0.18772,0.04335 -0.205,0.1125 -0.01569,0.06279 -0.04675,0.12879 -0.04375,0.2075 0.04577,0.03247 0.04224,0.197786 0.00625,0.05375 -0.0046,-0.01876 -0.005586,-0.03636 -0.00625,-0.05375 -0.00849,-0.006 -0.01931,-0.0085 -0.03125,-0.0025 -0.07235,0.0362 -0.01402,0.20537 -0.0925,0.225 -0.083524,0.02089 -0.21912,-0.0011 -0.2425,0.0925 -0.0241,0.09646 -0.06804,0.122088 -0.09375,0.225 -0.024012,0.09611 -0.0865,0.12655 -0.13125,0.18625 -0.01342,0.0179 -0.15439,0.277162 -0.11125,0.29875 0.02338,0.0234 0.01084,0.03354 0.05625,0.05625 0.073772,0.03691 0.1564,0.14524 0.205,0.2425 0.03343,0.0669 0.08327,0.149026 0.11125,0.26125 0.023285,0.0932 0.0631,0.1568 0.13125,0.225 0.049902,0.04993 0.14022,0.15385 0.205,0.18625 0.071936,0.03599 0.16855,0.1135 0.2425,0.1875 0.067995,0.06804 0.12897996,0.10893 0.20624996,0.18625 0.078897,0.07895 0.16854,0.0385 0.2425,0.1125 0.051676,0.05171 0.12787,0.0882 0.1675,0.1675 0.054426,0.10892 0.07161,0.13335 0.16875,0.20625 0.085004,0.06375 0.132326,0.07375 0.28,0.07375 0.112813,0 0.197447,-0.0375 0.29875,-0.0375 0.064374,0 0.23222,-0.02906 0.28,0.01875 0.05285,0.05289 0.10939,0.15841 0.205,0.20625 0.089913,0.04498 0.23504,0.02128 0.28,0.11125 0.00622,0.01245 0.01255,0.02505 0.01875,0.0375 0.03628,0.07262 0.11032,0.28501 0.13,0.20625 0.01065,-0.04271 -0.0206,-0.11156 0.01875,-0.13125 0.11167,-0.05587 0.07659,7.6e-4 0.1875,0.05625 0.077119,0.03858 0.149487,0.01875 0.26125,0.01875 0.105352,0 0.189578,-0.01875 0.29875,-0.01875 0.114231,0 0.23242,0.01728 0.28,0.1125 0.01507,0.03016 0.034902,0.08206 0.04125,0.1425 1.0300979,-3.413118 3.9091164,-6.0244256 7.4724996,-6.66875 -0.04449,-0.00967 -0.09645,-0.012498 -0.15875,-0.0125 -0.1452,0 -0.266774,0.01875 -0.41125,0.01875 -0.13322,0 -0.19833,-0.0028 -0.22375,-0.13 -0.02013,-0.100724 -0.075,-0.20005 -0.075,-0.28 0,-0.09358 -0.0182,-0.2077 0,-0.29875 0.02182,-0.109188 0.03206,-0.15781 0.075,-0.24375 0.04609,-0.092236 0.05625,-0.155564 0.05625,-0.28 l 0,-0.3175 c 0,-0.14252 0.07202,-0.107702 0.13,-0.22375 0.0313,-0.062732 0.0375,-0.133708 0.0375,-0.2425 0,-0.129004 -0.03551,-0.20288 -0.06875,-0.28375 -0.0022,-0.00536 -0.004,-0.01085 -0.0062,-0.01625 -0.03639,-0.091044 -0.111246,-0.25123 -0.11125,-0.3175 0,-0.09256 -0.09375,-0.16869 -0.09375,-0.26125 l 0,-0.28 0,-0.29875 c 0,-0.09666 -0.0026,-0.19436 0.01875,-0.28 0.01666,-0.066688 0.09162,-0.2043 0.1675,-0.26125 0.06963,-0.05226 0.15,-0.068734 0.15,-0.16875 -4e-6,-0.13822 -0.03879,-0.1125 -0.16875,-0.1125 -0.12146,0 -0.13179,-0.14875 -0.03625,-0.14875 0.07778,0 0.26165,-0.09363 0.11125,-0.13125 -0.10258,-0.025664 -0.14279,-0.16325 -0.18625,-0.14875 -0.03733,0.01246 -0.07516,0.02504 -0.1125,0.0375 -0.02516,-0.050356 -0.0806,-0.17023 -0.09,-0.215 -0.07707,-0.00872 -0.12205,7.6e-4 -0.09625,-0.1025 0.0077,-0.030664 0.05501,-0.21412 0.01875,-0.2625 -0.0111,-0.014816 -0.187496,-0.1282 -0.1875,-0.13 0,-0.074764 0.0281,-0.2103 -0.03625,-0.2425 -0.039,-0.01951 -0.37225,-0.08765 -0.37375,-0.09375 -0.0088,-0.03522 0.08191,-0.06808 0.05625,-0.09375 -0.02412,-0.024132 -0.075,-0.085626 -0.075,-0.18625 0,-0.18729 0.0018,-0.08859 -0.09375,-0.1125 C 9.9990369,2.78621 9.8166164,2.6971 9.7974264,2.7355 c -0.03314,0.066328 -0.0475,0.12119 0.0375,0.20625 0.02324,0.02326 0.1256,0.20551 0,0.11125 -0.1642,-0.123192 -0.08591,-0.00498 -0.1675,0.05625 -0.07564,0.056768 -0.12626,0.11236 -0.09375,0.2425 0.02727,0.10915 0.10251,0.11372 0.14875,0.20625 0.0236,0.047228 0.03788,0.1491 0.09375,0.205 0.108224,0.1083 0.018078,0.06108 -0.1125,0.09375 -0.057164,0.0143 -0.19032,0.10874 -0.205,0.1675 -0.01425,0.057244 9.92e-4,0.18225 -0.01875,0.26125 -0.023929,0.09578 -0.010395,0.15 -0.13,0.15 -0.17312,0 -0.08314,-0.17421 -0.13125,-0.18625 -0.067926,-0.01695 -0.20814,0.00392 -0.29875,-0.01875 -0.03562,-0.00891 -0.25993,-0.03484 -0.28,-0.075 -0.00714,-0.014292 -0.07298,-0.21605 -0.0925,-0.20625 -0.07256,0.036308 -0.05012,0.20625 -0.13125,0.20625 -0.146072,0 -0.247364,-0.04927 -0.37375,-0.1125 -0.137628,-0.068856 -0.20357,-0.09102 -0.29875,-0.18625 -0.022101,-0.02212 -0.1767,-0.07555 -0.1675,-0.1125 0.02607,-0.10436 0.01767,-0.1314 -0.0375,-0.205 -0.062016,-0.08274 -0.155616,-0.14233 -0.26125,-0.16875 -0.07449,-0.01864 -0.2166,-0.01156 -0.28,-0.075 -0.09763,-0.097692 -0.05426,-0.163452 -0.1125,-0.28 -0.06795,-0.135908 -0.03714,-0.300972 -0.07375,-0.4475 -0.01588,-0.063544 -0.1125,-0.21558 -0.1125,-0.2625 0,-0.11999 0.13705,-0.03169 0.13125,-0.055 -0.02435,-0.09746 6.4e-4,-0.1592 -0.1125,-0.1875 -0.10296,-0.025756 -0.167499,-0.077234 -0.1675,-0.18625 0,-0.13494 0.040715,-0.23231 -0.075,-0.26125 -0.089654,-0.022428 -0.19614,-0.08929 -0.28,-0.13125 -0.10732,-0.05369 -0.11614,-0.04233 -0.205,-0.13125 -0.05316,-0.053196 -0.02081,-0.22325 -0.09375,-0.205 -0.07498,0.018756 -0.12567,0.06629 -0.1675,0.15 -0.03468,0.069412 -0.06739,0.13346 -0.1125,0.22375 -0.048259,0.096572 -0.135786,0.21321 0.05625,0.26125 0.089392,0.02236 0.15035,0.05782 0.205,0.1125 0.05566,0.055692 0.1454,0.18853 0.075,0.22375 -0.046028,0.02303 -0.10968,0.04036 -0.1875,-0.0375 -0.0515,-0.05153 -0.205001,-0.14788 -0.205,-0.075 0,0.144684 0.07128,0.142476 0.13125,0.2625 0.019041,0.038108 0.082502,0.20066 0.18625,0.14875 0.085039,-0.04254 0.11042,-0.09206 0.18625,-0.13 0.056704,-0.02837 0.20823,-0.06642 0.225,0.0175 0.0046,0.0232 0.05577,0.28606 0,0.3 -0.142224,0.03558 -0.257617,0.05811 -0.41125,-0.01875 -0.096858,-0.048464 -0.16674,-0.13044 -0.2425,-0.20625 -0.063639,-0.06368 -0.101864,-0.15814 -0.2425,-0.13 -0.11103,0.022224 -0.168751,0.03935 -0.16875,0.14875 0,0.094564 0.00771,0.192 0.075,0.2425 0.122617,0.09202 0.132516,0.18852 -0.01875,0.075 -0.058796,-0.044128 -0.17955,-0.1045 -0.2425,-0.1675 -0.03303,-0.033056 -0.03013,-0.22415 -0.05625,-0.24375 -0.083446,-0.06262 -0.27345,0.00876 -0.29875,-0.0925 -0.01858,-0.074356 -0.07672,-0.18059 -0.0925,-0.24375 -0.0421,-0.1685 -0.01993,0.037496 -0.1125,0.0375 -0.14499,-4e-6 -0.223751,0.016734 -0.22375,-0.14875 0,-0.1457 -0.07195,-0.13776 -0.09375,-0.225 -0.033404,-0.1337 -0.1857,-0.110058 -0.26125,-0.26125 -0.00598,-0.011968 -0.186249,-0.35484 -0.18625,-0.26125 0,0.1353 -0.09745,0.12759 -0.16875,0.05625 -0.032049,-0.032076 -0.09532,-0.12327 -0.14875,-0.15 -0.028247,-0.014136 -0.261243,-0.129976 -0.26125,-0.13 -0.027197,-0.10886 -0.12798,-0.23729 -0.22375,-0.26125 -0.055621,-0.01392 -0.23642,-0.00653 -0.28,-0.09375 -0.0313,-0.062682 -0.037501,-0.148554 -0.0375,-0.26125 0,-0.030812 0.01456,-0.2625 -0.01875,-0.2625 z m 8.2349996,4.0075 c 0.01644,0.0018 0.03348,0.00405 0.0525,0.00875 0.01349,0.0034 -0.0277,-0.00895 -0.0375,-0.01875 -0.01587,-0.01588 -0.0188,-0.00786 -0.015,0.01 z m 8.77625,5.39625 c -0.0086,6e-4 -0.01675,0.00425 -0.02375,0.01125 -0.08958,0.08964 -0.07236,0.13 -0.225,0.13 l -0.05625,0 -0.4475,0 c -0.184852,0 -0.456418,-0.03062 -0.65375,0.01875 -0.09597,0.024 -0.185414,0.08415 -0.29875,0.1125 -0.05852,0.014642 -0.11217,0.024285 -0.165,0.03375 2.483673,1.207014 4.367911,3.454754 5.08875,6.175 0.04324,0.0298 0.08482,0.06173 0.1175,0.08625 0.05438,0.04081 0.21721,-0.04319 0.18625,0.01875 -0.0463,0.09266 -0.01237,0.11757 0.075,0.205 0.01704,0.01704 0.18435,0.260766 0.18625,0.26125 0.06236,0.0156 0.19877,-0.03002 0.22375,-0.13 0.01372,-0.05489 0.02311,-0.18491 0.0375,-0.2425 0.013,-0.05201 0.0163,-0.10941 0.0175,-0.1675 7.48e-4,-0.03769 0.0012,-0.07587 0.0012,-0.11375 l 0,-0.28 c 0,-0.111652 -0.0375,-0.14232 -0.0375,-0.2425 0,-0.0759 -0.01993,-0.20851 0.05625,-0.22375 0.08871,-0.01775 0.09904,0.0052 0.18625,0.0925 0.05552,0.05555 0.16875,0.163412 0.16875,0 0,-0.103396 -0.01956,-0.17072 -0.0375,-0.2425 -0.03755,-0.1503 -0.01299,-0.10608 0.11125,-0.075 0.09588,0.02395 0.210128,0.01875 0.3175,0.01875 0.07625,0 0.25116,0.03319 0.3175,0 0.08801,-0.04404 0.16875,-0.04261 0.16875,-0.14875 0,-0.11055 0.11455,-0.15551 0.11125,-0.16875 -0.01268,-0.05075 -0.0925,-0.18132 -0.0925,-0.22375 0,-0.06892 -0.03086,-0.23699 0,-0.29875 0.02278,-0.04558 0.11433,-0.1993 0.205,-0.13125 0.01759,0.0132 0.22225,0.17025 0.22375,0.16875 0.08491,-0.08497 0.0375,-0.192248 0.0375,-0.355 0,-0.110536 -0.01916,-0.20287 0,-0.29875 0.02222,-0.111148 0.03354,-0.14202 0.075,-0.225 0.02034,-0.04072 0.02474,-0.24215 0.055,-0.28 0.02489,-0.03113 0.05011,-0.06137 0.075,-0.0925 -0.05062,-0.10125 -0.08706,-0.06728 0.01875,-0.09375 0.12204,-0.03053 0.10835,-0.10955 0.18625,-0.1875 0.132702,-0.13278 -0.111248,-0.0485 -0.111248,-0.1675 0,-0.04438 0.0279,-0.25208 0,-0.28 -0.1342,-0.13429 -0.075,-0.05727 -0.075,-0.15 0,-0.1634 -0.11027,-0.08855 -0.13,-0.1675 -0.01188,-0.04753 -0.0375,-0.17825 -0.0375,-0.2425 0,-0.16485 0.01673,-0.14978 0.1675,-0.1875 0.08723,-0.02185 0.13535,-0.06969 0.18625,-0.01875 0.06222,0.06226 0.12528,0.24976 0.1875,0.1875 0.03499,-0.03502 0.04633,-0.08371 0.11125,-0.01875 0.06009,0.06013 0.14744,0.10608 0.1875,0.18625 0.04911,0.09829 0.105118,0.04843 0.22375,0.01875 0.08925,-0.02233 0.11155,-0.09375 0.205,-0.09375 0.1173,0 0.205,0.01471 0.205,-0.11125 0,-0.09943 -0.03625,-0.19912 -0.03625,-0.28125 0,-0.1682 -0.12024,-0.10469 -0.13125,-0.14875 -0.0311,-0.12448 0.0097,-0.13349 -0.13125,-0.16875 -0.09226,-0.02307 -0.12472,-0.05728 -0.0925,-0.18625 0.03834,-0.15342 -0.0036,-0.133544 -0.1125,-0.2425 -0.0383,-0.03832 -0.3132,-0.04775 -0.3175,-0.05625 -0.03442,-0.06888 0.01384,-0.25819 -0.055,-0.22375 -0.07575,0.0379 -0.171838,0.08675 -0.29875,0.055 -0.03449,-0.0086 -0.28,-0.05946 -0.28,-0.13 -0.04631,0 -0.29002,-0.04621 -0.26125,-0.075 0.03656,-0.03658 0.08774,-0.18454 -0.05625,-0.1125 -0.06794,0.03399 -0.11345,0.05535 -0.1875,-0.01875 C 24.903618,9.83791 24.76868,9.85061 24.768676,9.778 c 4e-6,-0.15149 -0.0016,-0.11327 -0.1125,-0.16875 -0.09627,-0.04816 -0.116146,-0.06818 -0.22375,-0.11125 -0.152744,-0.06114 -0.18033,-0.00618 -0.28,0.01875 -0.07112,0.01779 -0.198618,0.01875 -0.29875,0.01875 l -0.42875,0 c -0.136404,0 -0.274724,-0.00392 -0.3925,0.055 -0.09187,0.04596 -0.186762,0.05625 -0.29875,0.05625 -0.0302,0 -0.271,-0.01799 -0.28,0 -0.06633,0.13276 -0.02782,0.05625 -0.1675,0.05625 -0.131816,0 -0.15576,0.131254 -0.2425,0.13125 -0.112256,0 -0.20278,0.0451 -0.2425,0.055 -0.0975,0.024392 -0.16875,-0.00559 -0.16875,-0.11125 0,-0.12086 0.0034,-0.18806 -0.14875,-0.15 -0.12394,0.031004 -0.0812,0.14685 -0.16875,0.16875 -0.09568,0.02393 -0.23915,0.03665 -0.3175,0.05625 -0.05649,0.01413 -0.17392,0.04773 -0.22375,-0.01875 -0.06056,-0.08079 -0.11435,-0.0484 -0.205,-0.09375 -0.0757,-0.037876 -0.181294,-0.15 -0.29875,-0.15 -0.157988,0 -0.334204,4e-4 -0.485,-0.0375 -0.04525,-0.011322 -0.13958,-0.14545 -0.2,-0.14125 z m -15.4012496,6.72 c -0.024235,0.03381 -0.0425,0.06922 -0.0425,0.10875 l 0,0.08 c 0.013669,-0.06324 0.027591,-0.125981 0.0425,-0.18875 z m -0.25625,1.9925 c -0.016037,0.007 -0.032544,0.01377 -0.0475,0.02125 -0.099992,0.05005 -0.145972,0.05625 -0.28,0.05625 -0.17931,0 -0.167501,-0.1029 -0.1675,0.0375 0,0.08446 0.02035,0.19854 0,0.28 -0.01342,0.05372 -0.00741,0.19488 -0.05625,0.24375 -0.05499,0.05503 -0.075,0.12559 -0.075,0.22375 0,0.100728 0.01875,0.22583 0.01875,0.29875 0,0.10648 0.00431,0.18769 -0.01875,0.28 -0.01576,0.06306 0.0853,0.12936 0.05625,0.1875 -0.00905,0.01803 -0.11334,0.24741 -0.01875,0.22375 0.064521,-0.01615 0.1695,-0.01875 0.26125,-0.01875 0.11166,0 0.16169,0.03295 0.18625,0.13125 0.01745,0.06985 0.06041,0.13412 0.1125,0.18625 0.04914,0.04916 0.09921,0.10337 0.13125,0.1675 0.041561,0.08317 0.1022407,0.11452 0.16,0.16375 -0.1732559,-0.721567 -0.26625,-1.474039 -0.26625,-2.24875 0,-0.07824 0.00189,-0.155956 0.00375,-0.23375 z m 19.9962496,0.87 c -0.0104,-0.0011 -0.02134,0.0077 -0.0325,0.03 -0.0292,0.05853 -0.0375,0.135316 -0.0375,0.2425 4e-6,0.05874 -0.175,0.04121 -0.14875,0.09375 0.0324,0.06478 0.0375,0.134468 0.0375,0.2425 0,0.11122 0.055,0.13868 0.055,0.2425 l 0,0.28 c 0,0.09092 -0.0013,0.18236 0.01875,0.2625 0.01811,0.07248 0.09375,0.120238 0.09375,0.22375 0,0.0635 0.02645,0.22925 -0.0375,0.26125 -0.0565,0.0283 -0.16714,-4e-4 -0.2425,0.0375 -0.07033,0.03518 -0.118494,0.10492 -0.22375,0.13125 -0.14546,0.03638 -0.11256,0.0363 -0.16875,0.14875 -0.01754,0.0351 -0.03082,0.23705 -0.055,0.26125 -0.03963,0.03965 -0.13125,0.109352 -0.13125,-0.0375 -4e-6,-0.13246 0.0058,-0.14875 -0.13,-0.14875 -0.12932,0 -0.09375,0.06896 -0.09375,0.18625 0,0.08114 0.01922,0.20574 -0.0375,0.2625 -0.05737,0.0574 -0.22091,0.0504 -0.205,0.13 0.0062,0.03113 0.0046,0.06535 0.01875,0.09375 0.02528,0.02529 0.03235,0.0084 0.05625,0.05625 0.02524,0.05051 0.0737,0.12976 0.0925,0.205 0.0252,0.100892 0.04246,0.139868 0.09375,0.2425 0.03185,0.06375 0.05196,0.16443 0.09375,0.20625 0.04635,0.04638 0.11125,0.14346 0.11125,0.22375 0,0.108252 0.01875,0.15911 0.01875,0.26125 0,0.03022 0.01798,0.271 0,0.28 -0.08422,0.0421 -0.25716,-0.05391 -0.28,0.0375 -0.02115,0.08478 0.06598,0.2837 -0.01875,0.2625 -0.06329,-0.01583 -0.05515,-0.0024 -0.09375,0.03625 -0.0483,0.04834 -0.13179,0.1196 -0.14875,0.1875 -0.02329,0.09322 -0.02901,0.19372 -0.18625,0.1675 -0.03914,-0.0065 -0.35762,-0.11402 -0.37375,-0.0925 -0.05186,0.0692 -0.11029,0.30767 -0.13125,0.22375 -0.01298,-0.05196 -0.07648,-0.09375 -0.13,-0.09375 -0.01245,-4e-6 -0.0253,0.0024 -0.0375,0 -0.13657,-0.02734 -0.13375,-0.07744 -0.22375,-0.1675 -0.04697,-0.047 -0.04954,-0.08269 -0.05,-0.12125 -0.359437,0.514021 -0.76799,0.990186 -1.21875,1.42375 0.02977,0.01676 0.06113,0.03618 0.07375,0.0425 0.01295,0.0065 0.0296,0.02141 0.04625,0.03875 0.02416,0.0044 0.05134,0.0078 0.085,0.01625 0.09413,0.02355 0.14467,0.05862 0.1675,0.15 0.01788,0.07157 0.148754,0.13904 0.14875,0 0,-0.14107 -0.04882,-0.11756 -0.0925,-0.205 -0.03713,-0.0743 -0.0024,-0.30249 0.05625,-0.24375 0,0.02041 -0.01173,0.11951 0,0.13125 0.09095,0.091 0.10679,0.12102 0.14875,0.205 0.03309,0.06622 0.05008,0.12524 0.075,0.225 0.03065,0.12269 0.09001,0.1381 0.18625,0.18625 0.08186,0.04096 0.09683,0.09678 0.16875,0.16875 0.04012,0.04014 0.09818,0.13282 0.1675,0.1675 0.04215,0.02109 0.14042,0.07705 0.1675,0.13125 0.02606,0.05216 0.05289,0.14536 0.09375,0.18625 0.05418,0.05421 0.09197,0.09318 0.14875,0.15 0.06026,0.0603 0.08037,0.09782 0.15,0.1675 0.0514,0.05143 0.08087,0.11958 0.14875,0.1875 0.02651,0.02652 0.05959,0.05453 0.09,0.085 0.03147,0.0312 0.0605,0.06473 0.07875,0.10125 0.02626,0.05256 0.04326,0.13573 0.09375,0.18625 0.0696,0.06965 0.13,0.172674 0.13,0.28125 0.03524,0.04701 0.09375,0.07037 0.09375,0.14875 0,0.127096 0.0065,0.1804 0.05625,0.28 0.03771,0.07546 0.06512,0.17018 0.11125,0.2625 0.0432,0.0864 0.0375,0.175084 0.0375,0.28 0,0.12618 -0.01006,0.19488 0.075,0.28 0.03501,0.03503 0.13794,0.248328 0.1675,0.13 0.0397,-0.158968 0.0375,-0.11076 0.0375,0 0,0.103384 0.01956,0.17197 0.0375,0.24375 0.01837,0.07355 0.02906,0.14713 0.075,0.22375 0.01919,0.032 0.18625,0.12225 0.18625,0.15 0,0.09511 -0.01875,0.153786 -0.01875,0.26125 0,0.106696 -0.0023,0.18166 0.0375,0.26125 0.06915,0.138388 0.120174,0.215992 -0.01875,0.355 0.04388,0.04391 0.06213,0.06673 0.09375,0.13 0.03227,0.06458 0.0878,0.19993 0.14875,0.28125 0.06145,0.08199 0.1125,0.14277 0.1125,0.26125 l 0,0.37375 c 0,0.122288 -0.06802,0.177008 -0.09375,0.28 -0.0171,0.06843 -0.04385,0.18016 -0.075,0.2425 -0.03771,0.07547 -0.03174,0.13968 -0.07375,0.22375 -0.0341,0.06826 -0.09375,0.2216 -0.09375,0.3 0,0.04262 0.06716,0.29324 0.11125,0.205 0.05503,-0.110132 0.13557,-0.08371 0.075,0.0375 -0.03838,0.07681 -0.06074,0.122666 -0.11125,0.22375 -0.03617,0.0724 0.07235,0.2787 0,0.2425 -0.0352,-0.01761 -0.14032,0.0097 -0.1125,0.0375 0.05132,0.05134 0.25115,0.08002 0.18625,0.1125 -0.0187,0.0094 -0.19239,0.02487 -0.22375,0.05625 -0.08081,0.0809 -0.08525,0.04598 -0.05625,0.075 0.032,0.03203 0.13885,0.10764 0.16875,0.1675 0.03425,0.06854 0.07372,0.11116 0.13,0.18625 0.0013,0.0017 0.22375,0.17079 0.22375,0.09375 0,-0.12875 -0.06003,-0.15008 -0.07375,-0.205 -6e-4,-0.0026 -0.0018,-0.005 -0.0025,-0.0075 -0.01804,-0.01355 -0.03485,-0.02984 -0.05375,-0.04875 -0.06574,-0.06578 0.02123,-0.06653 0.05375,0.04875 0.03893,0.02925 0.08364,0.04353 0.17,0.02625 0.14639,-0.0293 0.12713,-0.05045 0.18625,-0.16875 0.04795,-0.09596 0.09375,-0.159538 0.09375,-0.29875 0,-0.112208 0.02694,-0.26591 0,-0.37375 -0.02576,-0.10308 -0.07748,-0.15861 -0.09375,-0.22375 -0.0058,-0.02323 -0.0116,-0.05543 -0.02,-0.08875 -0.01768,-0.02088 -0.0321,-0.0386 -0.035,-0.0425 -0.03364,-0.04488 -0.04515,-0.08719 -0.05375,-0.13375 -0.03259,-0.0569 -0.03177,-0.15085 -0.02125,-0.10875 0.01012,0.04049 0.01515,0.07549 0.02125,0.10875 0.0047,0.0081 0.01015,0.0164 0.01625,0.0225 0.03808,0.0381 0.0584,0.09809 0.0725,0.15375 0.04327,0.05108 0.11263,0.12739 0.1325,0.1075 0.11693,-0.116996 0.01097,0.04063 0.05625,0.13125 0.01126,0.02254 0.12341,0.15657 0.09375,0.18625 -0.0663,0.06633 -0.075,0.118206 -0.075,0.26125 0,0.08446 0.02035,0.19855 0,0.28 -0.0325,0.13008 -0.04973,0.14343 -0.13125,0.225 -0.02324,0.02326 -0.14477,0.10837 -0.13,0.1675 0.01758,0.07034 0.03784,0.15189 0.07375,0.22375 0.06567,0.131432 0.121972,0.10315 0.225,0.20625 0.01632,0.04083 0.06392,0.19516 0.0925,0.22375 0.0758,0.07585 0.1001,0.12388 0.15,0.22375 0.0399,0.07977 0.0375,0.185832 0.0375,0.3 l 0,0.3175 c 0,0.08875 -0.02152,0.2126 0,0.29875 0.01834,0.0734 0.0999,0.21236 0.1675,0.28 0.07903,0.07908 0.171,0.17095 0.26125,0.26125 0.08419,0.08425 0.103312,0.15949 0.205,0.26125 0.07046,0.0705 0.12757,0.12385 0.16875,0.20625 0.04166,0.08337 0.06927,0.14452 0.09375,0.2425 0.02868,0.114788 0.08113,0.159456 0.11125,0.28 0.02665,0.10669 0.05701,0.10595 0.13125,0.205 0.06422,0.08569 0.07875,0.178678 0.13,0.28125 0.04,0.08005 0.07152,0.16399 0.13125,0.22375 0.06048,0.06052 0.11368,0.172296 0.1675,0.28 0.04415,0.08835 0.12312,0.15117 0.16875,0.2425 0.0458,0.09165 0.11041,0.16787 0.18625,0.24375 0.05374,0.05377 0.09176,0.12699 0.11125,0.205 0.007,0.02817 0.03369,0.06937 0.05625,0.1125 -0.023,-0.09204 -0.01252,-0.16253 -0.0375,-0.2625 -0.02393,-0.09579 -0.05407,-0.16374 -0.07375,-0.2425 -0.02096,-0.08388 -0.07029,-0.09237 -0.09375,-0.18625 -0.02322,-0.09292 -0.01579,-0.16575 -0.075,-0.225 -0.06638,-0.06643 -0.02705,-0.106858 -0.05625,-0.22375 -0.01973,-0.07896 -0.0106,-0.20989 -0.055,-0.29875 -0.01348,-0.03372 -0.08069,-0.10513 -0.09375,-0.13125 -0.0368,-0.07364 -0.131254,-0.11611 -0.13125,-0.18625 0,-0.04438 0.02789,-0.25208 0,-0.28 -0.09214,-0.0922 -0.0925,-0.180276 -0.0925,-0.3175 4e-6,-0.112076 0,-0.224174 0,-0.33625 0,-0.132208 -0.11224,-0.11343 -0.205,-0.20625 -0.02489,-0.02491 -0.05011,-0.04885 -0.075,-0.07375 -0.06887,-0.06891 -0.03518,-0.24648 -0.13125,-0.2625 -0.09602,-0.01601 -0.2339,-0.0073 -0.13,-0.11125 0.0582,-0.05824 0.07265,-0.11193 0.14875,-0.15 0.08893,-0.0445 0.1125,-0.06038 0.1125,-0.18625 0,-0.1295 -0.07007,-0.199012 -0.09375,-0.3175 -0.01255,-0.06278 -0.05132,-0.23358 -0.01875,-0.29875 0.03376,-0.06758 0.07151,-0.13885 0.16875,-0.1875 0.05816,-0.0291 0.1675,-0.05959 0.1675,-0.14875 0,-0.06361 -0.02699,-0.24375 0.0375,-0.24375 0.10324,0 0.211688,0.04522 0.3175,0.01875 0.0956,-0.02392 0.14875,-0.07169 0.14875,-0.18625 0,-0.10713 -0.02078,-0.205 0.1125,-0.205 0.146476,0 0.27109,0.01836 0.33625,0.14875 0.03353,0.06711 0.055,0.108134 0.055,0.22375 0,0.03834 -0.02133,0.25247 0.01875,0.2625 0.0511,0.01278 0.20372,0.0016 0.24375,0.055 0.01115,0.01488 0.14464,0.17566 0.205,0.075 0.01867,-0.03113 0.03759,-0.06262 0.05625,-0.09375 0.03734,0 0.07392,-0.0925 0.11125,-0.0925 0.07388,0 0.22375,0.03776 0.22375,0.13 0,0.0886 -0.0127,0.19956 0.01875,0.2625 0.0434,0.08686 0.13125,0.246444 0.13125,0.3725 4e-6,0.13282 0.10806,0.216816 0.18625,0.1125 0.03054,-0.04075 0.10751,-0.18625 0.16875,-0.18625 0.102476,0 0.21313,0.02379 0.2425,-0.09375 0.03441,-0.137736 -0.09328,-0.175612 -0.15,-0.3175 -0.04596,-0.114964 -0.10129,-0.323844 -0.13,-0.4675 -0.02409,-0.120516 -0.0375,-0.26043 -0.0375,-0.39125 0,-0.180024 -0.07069,-0.337636 -0.1125,-0.505 -0.0062,-0.02491 -0.01255,-0.0501 -0.01875,-0.075 -0.03116,-0.1247 -0.0925,-0.243178 -0.0925,-0.37375 0,-0.15666 -0.0375,-0.30237 -0.0375,-0.46625 0,-0.149092 0.0375,-0.287058 0.0375,-0.41125 0,-0.147616 -0.02058,-0.313776 0.0375,-0.43 0.0451,-0.09026 0.04953,-0.22056 0.07375,-0.3175 0.02452,-0.09814 0.04442,-0.28484 0,-0.37375 -0.06038,-0.120832 -0.09814,-0.208718 -0.13,-0.33625 -0.02154,-0.08622 -0.03472,-0.17506 -0.05625,-0.26125 -0.02095,-0.08366 0.01966,-0.25937 -0.01875,-0.33625 -0.04353,-0.0871 -0.167496,-0.197 -0.1675,-0.26125 0,-0.06894 -0.02635,-0.30195 0.055,-0.26125 0.04753,0.02378 0.206246,0.22157 0.20625,0.05625 0,-0.11896 -0.02913,-0.152722 -0.05625,-0.26125 -0.01655,-0.06627 -0.03853,-0.18951 -0.075,-0.2625 -0.02655,-0.05315 -0.06194,-0.15101 -0.075,-0.2425 -0.01545,-0.108108 0.0078,-0.248828 -0.01875,-0.355 -0.01814,-0.07262 -0.05849,-0.149938 -0.03625,-0.26125 0.0062,-0.03113 0.01255,-0.06262 0.01875,-0.09375 -0.08257,-0.06197 -0.11182,-0.125796 -0.13125,-0.2425 -0.0189,-0.113456 -0.01645,-0.21796 -0.05625,-0.3175 -0.05906,-0.14776 -0.0514,-0.138048 0,-0.2425 0.05262,-0.106916 -0.11125,-0.18365 -0.11125,-0.28125 0,-0.11432 0.007,-0.233122 -0.01875,-0.33625 -0.02944,-0.117832 -0.01875,-0.248032 -0.01875,-0.3725 0,-0.07984 0.02743,-0.23714 -0.01875,-0.29875 -0.0678,-0.09045 -0.0092,-0.28919 -0.075,-0.355 -0.08195,-0.082 -0.21286,-0.236368 -0.2425,-0.355 -0.02636,-0.1055 -0.1125,-0.22549 -0.1125,-0.3175 0,-0.06548 0.04554,-0.29069 0.01875,-0.3175 -0.047,-0.04703 -0.18673,-0.03937 -0.205,-0.1125 -0.03165,-0.12666 -0.08126,-0.09994 -0.18625,-0.205 -0.10661,-0.10668 -0.16263,-0.198 -0.13125,-0.355 0.02521,-0.126104 0.0375,-0.274012 0.0375,-0.43 0,-0.116912 -0.01397,-0.17664 -0.05625,-0.26125 -0.0409,-0.08185 -0.075,-0.18259 -0.075,-0.28 0,-0.111072 0.0065,-0.19575 -0.03625,-0.28125 -0.0334,-0.06695 -0.0375,-0.145978 -0.0375,-0.26125 0,-0.15907 0.2425,-0.06775 0.2425,-0.0925 l 0,-0.28125 c 0,-0.168868 -0.0247,-0.19215 -0.1125,-0.28 -0.07372,-0.07377 -0.04709,-0.09159 -0.01875,-0.205 0.01746,-0.0699 0.02337,-0.14534 -0.0375,-0.20625 -0.03741,-0.03743 -0.11834,-0.10915 -0.13,-0.1675 -0.0221,-0.11056 -0.03237,-0.17593 -0.075,-0.26125 -0.04294,-0.08593 -0.09375,-0.196948 -0.09375,-0.3175 0,-0.09282 0.0013,-0.20472 -0.0175,-0.29875 -0.01465,-0.07352 0.04827,-0.19147 -0.01875,-0.225 -0.08844,-0.04424 -0.1125,-0.118972 -0.1125,-0.2425 0,-0.1323 -0.05367,-0.11964 -0.075,-0.205 -0.01755,-0.07021 -0.01875,-0.16705 -0.01875,-0.2625 0,-0.08445 0.02035,-0.19854 0,-0.28 -0.01208,-0.04836 -0.05767,-0.13455 -0.1275,-0.13875 -0.02328,-0.0014 -0.04914,0.0062 -0.0775,0.0275 -0.09174,0.06885 -0.112504,0.107976 -0.1125,0.2425 0,0.08739 0.10348,0.28245 0.01875,0.26125 -0.05593,-0.014 -0.12313,-0.0099 -0.14875,-0.1125 -0.0072,-0.02873 -0.0082,-0.23048 -0.05625,-0.2425 -0.06181,-0.01547 -0.17965,-0.14875 -0.18625,-0.14875 -0.1281,0 -0.1473,0.03079 -0.1875,0.11125 -0.03785,0.07575 -0.205004,0.06532 -0.205,0.15 -4e-6,0.14427 -0.05548,0.09309 -0.11125,0.1675 -0.01092,0.01458 -0.1103,0.1897 -0.1125,0.1875 -0.07332,-0.07336 -0.09734,-0.05864 -0.205,-0.1125 -0.01041,-0.0052 -0.02585,-0.0132 -0.0425,-0.0225 -0.0012,-7e-4 -0.0026,-0.0018 -0.0037,-0.0025 -0.01618,-0.0092 -0.03387,-0.01969 -0.05125,-0.03125 -0.04236,-0.02816 -0.0822,-0.06145 -0.09,-0.0925 -0.01921,-0.0769 -0.111252,-0.11791 -0.111252,-0.1875 4e-6,-0.0258 -0.03495,-0.21151 -0.08,-0.21625 z m -3.62625,6.36375 c -0.0551,-0.0099 -0.09358,-0.01835 -0.14125,-0.06 -0.222411,0.212596 -0.454244,0.41563 -0.69625,0.60625 0.04379,-0.01676 0.0908,-0.025 0.1375,-0.025 0.05966,0 0.23233,-0.0293 0.24375,-0.075 0.01434,-0.0574 0.03737,-0.16777 0.11125,-0.18625 0.07421,-0.01855 0.18002,-0.01875 0.28,-0.01875 0.08704,0 0.21732,0.0035 0.15,-0.13125 -0.01064,-0.02128 -0.04887,-0.07238 -0.085,-0.11 z M 4.4224264,21.41925 c 0.0012,0.08671 2.76e-4,0.196199 -0.02,0.20125 -0.196014,0.04903 -0.0925,-0.01538 -0.0925,0.1675 0,0.07914 0.02102,0.2543 -0.1125,0.1875 -0.15132,-0.07571 -0.16482,-0.104724 -0.09375,0.0375 0.0459,0.09186 0.03561,0.14681 0.1125,0.22375 0.057289,0.05732 0.22375,0.09438 0.22375,0.15 0,0.22567 0.098865,0.03628 0.22375,0.13 0.12304,0.09234 0.06188,0.01506 0.09375,-0.1125 0.012887,-0.05158 0.02038,-0.06245 0.03125,-0.05625 -0.1378486,-0.301309 -0.2596393,-0.611672 -0.36625,-0.92875 z m 0.8,1.76125 c -0.045476,0.02162 -0.086179,0.0447 -0.09125,0.065 -0.02405,0.09619 -0.01875,0.210004 -0.01875,0.3175 0,0.08446 0.02035,0.19855 0,0.28 -0.02207,0.08833 -0.05222,0.15134 -0.075,0.2425 -0.00958,0.03836 -0.05561,0.26236 0.01875,0.24375 0.074837,-0.01872 0.15911,-0.03486 0.18625,0.07375 0.01359,0.05438 0.04926,0.23673 0.09375,0.28125 0.036998,0.03702 0.16375,0.04747 0.18625,0.0925 0.028,0.05605 0.037499,0.13777 0.0375,0.24375 0,0.116788 0.02485,0.19877 -0.075,0.22375 -0.04093,0.01024 -0.22089,0.15154 -0.13,0.2425 -0.01317,0.02636 -0.07546,0.14951 -0.0375,0.1875 0.027656,0.02768 0.242499,0.25012 0.2425,0.28 0,0.155776 -0.00134,0.18754 -0.09375,0.28 -0.158154,0.15826 0.19324,0.2367 0.1125,0.3175 -0.09428,0.09433 -0.133611,0.202568 -0.01875,0.3175 0.07616,0.07622 0.02582,0.13945 0.05625,0.26125 0.01964,0.0786 0.02571,0.17443 0.075,0.22375 0.06014,0.06018 0.08566,0.122588 0.11125,0.225 0.03784,0.15146 -0.111249,0.17412 -0.11125,0.2425 0.00924,0.0092 0.073749,0.04124 0.07375,0.075 0,0.09972 -0.018751,0.177744 -0.01875,0.28 0,0.15077 -0.00494,0.1625 0.075,0.2425 0.05002,0.05005 0.15842,0.187496 0.13125,0.1875 -0.266708,-4e-6 0.02634,0.12237 -0.0375,0.18625 -0.15712,0.1572 0.05214,0.0721 0.13,0.15 0.06407,0.06411 0.07896,0.13392 0.15,0.205 0.06255,0.06258 0.056251,0.124816 0.05625,0.2425 0,0.11382 0.130808,0.16555 0.13,0.16875 -0.035531,0.14221 -0.13771,0.10787 -0.18625,0.205 -0.01604,0.0321 -0.07703,0.16338 -0.0375,0.2425 0.035901,0.07184 0.11468,0.17556 0.14875,0.24375 0.0305,0.06107 0.0375,0.134798 0.0375,0.2425 0,0.07331 0.02372,0.20459 -0.01875,0.26125 -0.061514,0.08208 -0.11872,0.15617 -0.18625,0.22375 -0.08228,0.08234 -0.1815,0.10558 -0.14875,0.1875 0.04355,0.108948 0.0787,0.112204 0.11125,0.2425 0.01525,0.06096 0.018749,0.17202 0.01875,0.26125 0,0.120012 -0.141615,0.1729 0,0.24375 0.09917,0.04962 0.11303,0.11298 0.205,0.205 0.061278,0.06132 0.14656,0.18275 0.225,0.26125 0.077204,0.07725 0.186249,0.100228 0.18625,-0.0375 0,-0.137264 -0.036834,-0.19405 -0.14875,-0.26125 -0.07674,-0.04608 -0.168751,-0.09686 -0.16875,-0.18625 0,-0.02788 0.0103,-0.11802 0.0125,-0.1925 -0.01008,-0.02364 -0.0122,-0.06146 -0.01,-0.1025 -8e-4,-0.0013 -0.0016,-0.0028 -0.0025,-0.0037 -0.08264,-0.0827 -0.167499,-0.164676 -0.1675,-0.3 0,-0.08446 -0.02035,-0.19854 0,-0.28 0.011485,-0.04596 0.130001,-0.18736 0.13,-0.13 0,0.09103 -0.01957,0.22207 0.01875,0.29875 0.0305,0.06107 0.037499,0.134792 0.0375,0.2425 0,0.03393 -0.01275,0.10715 -0.01625,0.1725 0.00945,0.0152 0.0114,0.0553 0.01,0.1025 0.00553,0.01299 0.01329,0.02135 0.025,0.02375 0.055444,0.0111 0.32211,0.23138 0.355,0.1875 0.05448,-0.07269 0.07648,-0.13667 0.11125,-0.20625 0.03688,-0.07381 0.09375,-0.1716 0.09375,-0.26125 0,-0.07144 0.045,-0.24527 0.0575,-0.28875 -6.4e-4,0.0029 4.8e-5,0.0034 -0.00125,0.0087 -0.0294,0.117592 -0.00825,0.237916 -0.0375,0.355 -0.01445,0.05784 -0.05394,0.24478 0,0.29875 0.06984,0.06989 0.09375,0.143894 0.09375,0.26125 l 0,0.28 c 0,0.114508 -0.037501,0.177988 -0.0375,0.28 0,0.02752 10e-5,0.05462 0.0025,0.08 0.120898,0.03634 0.242687,0.06953 0.365,0.1025 0.00842,-0.0042 0.01565,-0.0089 0.02375,-0.01375 0.137548,-0.08258 0.167759,-0.05716 0.0375,-0.1875 -0.080123,-0.08017 -0.031256,-0.09559 0.075,-0.14875 0.11965,-0.05986 0.1163,-0.122304 0.0375,-0.28 -0.05829,-0.116656 -0.10508,-0.250244 -0.13125,-0.355 -0.019198,-0.07684 -0.04037,-0.21223 -0.01875,-0.29875 0.03253,-0.1302 0.01849,-0.188644 0.05625,-0.0375 0.030014,0.120136 0.03814,0.13058 0.13125,0.22375 0.042549,0.04258 0.1675,0.10893 0.1675,0.1875 0,0.155166 -0.01532,0.155126 0.01875,0.01875 0.02502,-0.100156 0.06983,-0.14801 0.09375,-0.24375 0.02222,-0.08893 0.0375,-0.14703 0.0375,-0.26125 0,-0.07923 0.0339,-0.24965 0,-0.3175 -0.05181,-0.103676 -0.08666,-0.19075 -0.13125,-0.28 -0.033147,-0.06634 -0.08932,-0.12804 -0.14875,-0.1875 -0.05099,-0.05102 -0.112501,-0.152572 -0.1125,-0.26125 0,-0.184504 0.00777,-0.209568 0.09375,-0.0375 0.029211,0.05846 0.0939,0.17013 0.14875,0.225 0.030857,0.03088 0.15,0.250272 0.15,0.0925 0,-0.03674 0.04213,-0.26826 0.055,-0.2425 0.03623,0.0725 0.056249,0.125208 0.05625,0.2425 0,0.0934 -1.2e-6,0.18785 0,0.28125 0,0.09339 -1.2e-6,0.1866 0,0.28 0,0.109468 -0.03362,0.17069 -0.05625,0.26125 -0.02565,0.10266 -0.07375,0.224626 -0.07375,0.33625 l 0,0.29875 c 0,0.04512 0.10938,0.33817 0.18625,0.26125 0.046144,-0.04617 0.1507,-0.10282 0.2425,-0.14875 0.085712,-0.04288 0.16054,-0.04923 0.2425,-0.13125 0.0311,-0.03112 0.18786,-0.179452 0.1125,-0.28 -0.04978,-0.06641 -0.075,-0.10409 -0.075,-0.22375 0,-0.08883 -0.02031,-0.22183 0.01875,-0.3 0.051858,-0.10378 0.13693,-0.06188 0.205,-0.13 0.04168,-0.0417 0.10615,-0.23639 0.05625,-0.33625 -0.05827,-0.116616 -0.10337,-0.17043 -0.14875,-0.26125 -0.0058,-0.01167 -0.132962,-0.25826 0,-0.225 0.1601,0.04005 0.14875,0.0022 0.14875,-0.14875 0,-0.04168 0.0334,-0.26955 0.0375,-0.26125 0.06146,0.123 -0.01875,0.172278 -0.01875,0.29875 0,0.106352 0.01793,0.16417 0.0375,0.2425 0.033197,0.13287 0.033393,0.07895 0.1675,0.1125 0.07179,0.01796 0.07697,0.107242 0.01875,0.22375 -0.02248,0.045 -0.05625,0.14613 -0.05625,0.22375 l 0,0.29875 0,0.28125 0,0.28 c 0,0.08446 -0.02035,0.19855 0,0.28 0.025705,0.102888 0.056208,0.20965 0.1875,0.2425 0.14075,0.03521 0.17929,0.04722 0.14875,-0.075 -0.02155,-0.08633 -0.018751,-0.18298 -0.01875,-0.28 0,-0.09567 0.02432,-0.23689 -0.0375,-0.29875 -0.05635,-0.05638 -0.22606,-0.20559 -0.14875,-0.18625 5.08e-4,0 0.12346,0.0044 0.1675,0.0925 0.034682,0.06942 0.16922,0.15186 0.1875,0.225 0.01399,0.05599 -0.11188,0.18681 -0.0375,0.26125 0.071904,0.07195 0.1466628,0.05625 0.26125,0.05625 0.070316,-1e-5 0.2425696,0.01851 0.2612496,-0.05625 0.0106,-0.04241 0.04376,-0.19871 0,-0.2425 -0.05129,-0.05132 -0.1873896,-0.1136 -0.2612496,-0.1875 -0.08089,-0.08094 -0.23357,-0.36869 -0.13125,-0.3175 0.09474,0.0474 0.11291,0.12205 0.20625,0.16875 0.042256,0.02114 0.1619196,0.14875 0.2237496,0.14875 0.10354,0 0.2831,-0.0112 0.205,-0.1675 -0.03362,-0.06729 -0.14691,-0.25945 -0.09375,-0.20625 0.04056,0.04059 0.09069,0.07191 0.13125,0.1125 0.06264,0.06268 0.11241,0.07612 0.18625,0.15 0.04517,0.04521 0.1595,0.10055 0.2425,0.0175 0.08244,-0.08249 0.07653,-0.14011 0.16875,-0.18625 0.03672,-0.01837 0.242496,-0.04635 0.2425,-0.1125 0,-0.09339 -4e-6,-0.1866 0,-0.28 0,-0.113332 -0.01875,-0.171088 -0.01875,-0.28 0,-0.1749 -0.11206,-0.0777 -0.13,-0.1675 -0.01165,-0.0585 0.0016,-0.1999 -0.01875,-0.28125 -0.01795,-0.07183 -0.1423,-0.15641 -0.075,-0.22375 0.02609,-0.02611 0.18625,-0.07116 0.18625,-0.14875 l 0,-0.28125 c 0,-0.12736 0.05012,-0.22964 0.09375,-0.055 0.01623,0.06496 0.13,0.13953 0.13,0.205 l 0,0.28 c 0,0.13328 0.03036,0.13443 0.075,0.22375 0.0384,0.07686 0.01262,0.1629 0.0375,0.2625 0.0088,0.03528 0.02845,0.19594 0.05625,0.22375 0.05092,0.05095 0.04953,0.131246 0.1675,0.13125 0.14065,-4e-6 0.13125,-0.01149 0.13125,-0.15 0,-0.09567 -0.075,-0.19199 -0.075,-0.22375 0,-0.03842 -0.0224,-0.2831 0.05625,-0.24375 0.08016,0.04012 0.06673,0.07965 0.11125,0.16875 0.03269,0.06543 0.05474,0.10971 0.1125,0.1675 0.0223,0.02235 0.223754,0.129414 0.22375,0.01875 0,-0.09083 -0.01752,-0.18746 0.0375,-0.2425 0.03457,-0.0346 0.20025,-0.13804 0.16875,-0.075 -0.05198,0.104024 -0.0466,0.148844 -0.075,0.2625 -0.03072,0.122978 0.01496,0.15437 -0.1125,0.18625 -0.0559,0.01398 -0.205,0.05259 -0.205,0.15 0,0.06756 -0.02942,0.22113 0,0.28 0.017,0.03401 0.06274,0.17073 0.09375,0.18625 0.0456,0.02281 0.2014,0.01512 0.2425,0.05625 0.05719,0.05722 0.06257,0.12131 0.11125,0.18625 0.05976,0.07973 0.13314,0.07685 0.1875,0.13125 0.07762,0.07766 0.127452,0.0375 0.2425,0.0375 0.08655,0 0.20255,0.02 0.28,-0.01875 0.08324,-0.04164 0.10386,-0.08632 0.1675,-0.15 0.04791,-0.04794 0.13856,-0.14458 0.16875,-0.205 0.03386,-0.06775 0.0682,-0.14521 0.0925,-0.2425 0.02136,-0.08549 -9.2e-4,-0.18439 0.0375,-0.26125 0.03625,-0.07254 0.11748,-0.1699 0.13125,-0.225 0.01837,-0.07354 0.01843,-0.16583 0.0375,-0.26125 0.02046,-0.10238 0.05184,-0.1643 0.11125,-0.22375 0.04677,-0.0468 0.16083,-0.2092 0.13125,-0.15 -0.03552,0.07109 -0.112504,0.10128 -0.1125,0.1875 0,0.08736 -0.01139,0.18584 0.01875,0.26125 0.01245,0.03113 0.02506,0.06137 0.0375,0.0925 0.0028,-0.0029 0.12599,-0.176736 0.05625,-0.28 -0.06187,-0.09162 0.20097,-0.08883 0.18625,-0.1675 -0.01862,-0.09956 0.17011,-0.16279 0.2425,-0.20625 0.0859,-0.05157 0.13105,-0.08759 0.205,-0.18625 0.04855,-0.06477 0.15401,-0.156714 0.20625,-0.26125 0.03078,-0.0616 0.06865,-0.17598 0.11125,-0.26125 0.03134,-0.06272 0.11529,-0.23575 0.16875,-0.2625 0.07198,-0.03601 0.11593,-0.07722 0.18625,-0.13 0.10625,-0.07974 0.18625,-0.150216 0.18625,-0.3175 0,-0.116164 0.0057,-0.19194 0.075,-0.26125 0.055,-0.05504 0.15345,-0.12967 0.16875,-0.20625 0.01523,-0.07618 0.03625,-0.163404 0.03625,-0.28 l 0,-0.16625 c -0.766136,0.19691 -1.568668,0.3025 -2.39625,0.3025 -3.5439296,0 -6.6381417,-1.920639 -8.3012496,-4.7775 z m 14.8674996,2.62875 c -0.0045,5.2e-4 -0.0062,0.005 -0.0062,0.01375 -0.07524,0.01506 -0.187504,0.037 -0.1875,0.1125 0,0.06169 0.01385,0.20006 0.05625,0.2425 0.04804,0.04806 0.1086,0.10857 0.16875,0.16875 0.05098,0.05101 0.07791,0.11537 0.14875,0.18625 0.031,0.03102 0.2001,0.1036 0.2425,0.01875 0.03081,-0.06166 0.04595,-0.133624 0.01875,-0.2425 -0.01252,-0.05009 -0.03736,-0.20625 -0.1125,-0.20625 -0.10916,0 -0.12688,-0.02997 -0.1675,-0.11125 -0.0049,-0.0098 -0.13008,-0.1862 -0.16125,-0.1825 z m -0.66375,0.12 c -0.4233,0.330446 -0.87538,0.62578 -1.35125,0.8825 0.04562,0.04088 0.09212,0.0833 0.1225,0.11375 0.0506,0.05063 0.08238,0.08109 0.15,0.14875 0.06398,0.06402 0.13246,0.11491 0.205,0.1875 0.09844,0.0985 0.156564,0.01875 0.28,0.01875 0.15119,0 0.11381,-0.0238 0.1675,-0.13125 0.0415,-0.08306 0.08888,-0.167504 0.20625,-0.1675 0.09017,0 0.19194,-0.0028 0.26125,-0.0375 0.08716,-0.0436 0.15067,-0.13199 0.2425,-0.16875 0.10872,-0.04352 0.1561,-0.136466 0.09375,-0.26125 -0.04297,-0.08598 -0.01888,-0.18647 -0.05625,-0.26125 -0.07712,-0.15434 -0.30406,-0.26796 -0.28,-0.28 -0.0089,-0.01332 -0.03464,-0.03098 -0.04125,-0.04375 z m 1.23125,0.325 c -0.0088,0.001 -0.01375,0.0065 -0.01375,0.0175 0,0.08126 0.0045,0.20046 -0.0375,0.2425 -0.05284,0.05287 -0.08851,0.11946 -0.13125,0.205 -0.02726,0.05456 -0.1675,0.11977 -0.1675,0.16875 l 0,0.28 c 0,0.08358 -0.01641,0.19089 0.01875,0.26125 0.03933,0.07872 0.07102,0.16599 0.13,0.225 0.05086,0.05089 0.06902,0.10523 0.13125,0.1675 0.05844,0.05848 0.100802,0.075 0.22375,0.075 l 0.28,0 c 0.06466,0 0.21608,0.02645 0.26125,-0.01875 0.06324,-0.06328 0.075,-0.06857 0.075,-0.20625 0,-0.110308 0.0021,-0.23406 -0.01875,-0.3175 -0.02828,-0.1132 -0.13148,-0.13086 -0.15,-0.205 -0.02365,-0.09466 -0.11125,-0.142138 -0.11125,-0.26125 0,-0.1343 -0.07423,-0.12811 -0.09375,-0.20625 -0.01185,-0.04744 -0.02708,-0.17228 -0.0925,-0.205 -0.04313,-0.02158 -0.187496,-0.1528 -0.1875,-0.18625 -0.03236,-0.0065 -0.08961,-0.03925 -0.11625,-0.03625 z m -2.8325,0.68875 c -0.132979,0.06676 -0.267328,0.130576 -0.40375,0.19125 0.01403,0.01583 0.02934,0.03308 0.04875,0.0525 0.04908,0.04911 0.13405,0.14347 0.18625,0.18625 0.0418,-0.03346 0.07773,-0.0925 0.13125,-0.0925 0.03154,0 0.248,-0.01551 0.2425,-0.0375 -0.0215,-0.08607 -0.06932,-0.11984 -0.1125,-0.20625 -0.02756,-0.05515 -0.05878,-0.06959 -0.0925,-0.09375 z m -0.82625,0.36625 c -0.27999,0.10877 -0.566737,0.206208 -0.85875,0.28875 0.0018,0.0062 0.0034,0.01238 0.005,0.01875 0.02545,0.10206 0.01875,0.222578 0.01875,0.33625 0,0.08972 0.02156,0.21248 0,0.29875 -0.02561,0.102536 -0.04746,0.169756 -0.075,0.28 -0.01764,0.0706 -0.075,0.18414 -0.075,0.2425 0,0.09092 0.0013,0.1811 -0.01875,0.26125 -0.02062,0.08253 -0.04778,0.1615 -0.11125,0.225 -0.08084,0.08089 -0.112504,0.09723 -0.1125,0.22375 0,0.06584 0.02562,0.25435 -0.01875,0.29875 -0.08153,0.08158 -0.09375,0.13085 -0.09375,0.26125 0,0.08446 -0.02034,0.19855 0,0.28 0.02522,0.100944 0.06434,0.12861 0.1125,0.225 0.02354,0.0471 0.09958,0.159248 0.13,0.0375 0.03296,-0.13196 0.126246,-0.0456 0.24375,-0.075 0.1332,-0.03332 0.0961,-0.05182 0.13,-0.1875 0.01474,-0.05898 0.05917,-0.15018 0.13125,-0.18625 0.103804,-0.05194 0.18764,0.01807 0.22375,0 0.09144,-0.04575 0.10628,-0.09132 0.13,-0.18625 0.03002,-0.120156 0.05654,-0.15052 0.1125,-0.2625 0.03804,-0.07611 0.06972,-0.09009 0.09375,-0.18625 0.02201,-0.0881 0.0925,-0.19726 0.0925,-0.3175 0,-0.09962 4e-6,-0.19913 0,-0.29875 0,-0.08446 -0.02035,-0.19855 0,-0.28 0.03171,-0.12692 0.04352,-0.285246 0.075,-0.41125 0.02283,-0.09138 0.075,-0.111282 0.075,-0.22375 0,-0.131356 0.03267,-0.318018 0,-0.44875 -0.03283,-0.13141 -0.09172,-0.09166 -0.18625,-0.18625 -0.0084,-0.0084 -0.01602,-0.01808 -0.02375,-0.0275 z m 0.9825,0.09625 c -0.0059,0 -0.0085,0.0012 -0.0075,0.005 0.01904,0.07621 0.0375,0.130954 0.0375,0.24375 0,0.11547 0.0361,0.12715 0.075,0.205 0.0368,0.07365 -0.0025,0.18118 0.0375,0.26125 0.03846,0.07697 0.08919,0.10915 0.14875,0.16875 0.02422,0.02424 0.205004,0.1572 0.205,0.1675 -0.01245,0.03113 -0.0375,0.06022 -0.0375,0.09375 0,0.09684 -0.0175,0.1873 -0.0175,0.26125 l 0,0.29875 c 0,0.113148 -0.03394,0.18265 -0.1125,0.26125 -0.06429,0.06433 -0.1125,0.140778 -0.1125,0.24375 0,0.122212 -0.02417,0.21161 -0.11125,0.29875 -0.04717,0.0472 -0.07142,0.09688 -0.09375,0.18625 -0.0092,0.03665 -0.09042,0.21481 0.01875,0.1875 0.0954,-0.02386 0.04809,0.0383 0.13125,0.0175 0.08855,-0.02215 0.2677,-0.14532 0.31625,-0.2425 0.03431,-0.06867 0.17386,-0.19816 0.225,-0.22375 0.06734,-0.03369 0.09404,-0.0945 0.1675,-0.13125 0.08104,-0.04054 0.10012,-0.15443 0.1675,-0.205 0.06369,-0.0478 0.05682,-0.11303 0.1125,-0.16875 0.09638,-0.09644 0.167504,-0.2158 0.1675,-0.41 0,-0.08445 0.02035,-0.19854 0,-0.28 -0.02783,-0.111396 -0.1472,-0.14375 -0.1675,-0.225 -0.03207,-0.128348 -0.06377,-0.201206 -0.13125,-0.33625 -0.03734,-0.07474 -0.09924,-0.11795 -0.1675,-0.18625 -0.04636,-0.0464 -0.09464,-0.09586 -0.14875,-0.15 -0.04824,-0.04828 -0.13133,-0.15344 -0.1875,-0.1675 -0.108608,-0.02716 -0.164544,-0.03598 -0.28,-0.09375 -0.0055,-0.0028 -0.19337,-0.081 -0.235,-0.08 z m -0.0825,0.435 c -0.1205,0 -0.07375,0.03746 -0.07375,0.1675 0,0.20067 0.11077,0.074 0.14875,0.15 0.07061,-0.11776 0.07001,-0.06619 0.0375,-0.13125 -0.02152,-0.04306 -0.0696,-0.18625 -0.1125,-0.18625 z m 0.01875,0.41125 c 0.01203,0.02407 0,0.21141 0,0.29875 0,0.109056 0.0019,0.18243 -0.0375,0.26125 -0.03811,0.07626 -0.09922,0.15766 -0.14875,0.22375 -0.0403,0.05376 -0.02969,0.20933 -0.05625,0.2625 -0.04934,0.09873 -0.1417,0.120474 -0.1675,0.22375 -0.02035,0.08146 0,0.19554 0,0.28 0,0.101188 -0.0019,0.17864 0.01875,0.26125 0.02965,0.118672 0.09476,-0.0265 0.11125,-0.0925 0.02644,-0.105816 0.01575,-0.18146 0.05625,-0.2625 0.03902,-0.07808 0.07578,-0.15026 0.1125,-0.22375 0.04398,-0.08802 0.07375,-0.122688 0.07375,-0.2425 0,-0.08977 0.10653,-0.15637 0.16875,-0.1875 0.0706,-0.03532 0.05625,-0.2082 0.05625,-0.28 l 0,-0.28 c 0,-0.15369 -0.04809,-0.1867 -0.1875,-0.2425 z m -2.15625,0.685 c -0.03803,0.002 -0.08161,0.02159 -0.12125,0.06125 -0.04316,0.04319 -0.09634,0.08264 -0.13,0.15 -0.03103,0.0621 -0.07025,0.14235 -0.13125,0.22375 -0.06133,0.08182 -0.08896,0.14288 -0.13,0.225 -0.04264,0.08532 -0.09485,0.09466 -0.13125,0.1675 -0.0283,0.05663 -0.07375,0.11246 -0.0925,0.1875 -0.02154,0.08623 -0.07814,0.13613 -0.05625,0.22375 0.0071,0.02826 0.06389,0.27445 0.0375,0.26125 -0.07678,0.128036 -0.01302,0.1789 0.0375,0.28 0.02414,0.0483 0.07375,0.216204 0.07375,0.075 0,-0.12896 0.01731,-0.12802 0.075,-0.205 0.03977,-0.05306 0.10575,-0.13646 0.13125,-0.1875 0.03355,-0.06713 0.0704,-0.12661 0.13,-0.18625 0.07031,-0.07035 0.167496,-0.114168 0.1675,-0.225 0,-0.130552 0.02845,-0.168712 0.05625,-0.28 0.01915,-0.07658 0.01875,-0.16235 0.01875,-0.26125 0,-0.101876 -0.0029,-0.16454 0.05625,-0.22375 0.042,-0.04203 0.13911,-0.09976 0.1125,-0.20625 -0.01385,-0.05544 -0.05486,-0.0825 -0.10375,-0.08 z m 0.75875,1.2575 c -0.01694,-0.0012 -0.03797,0.01465 -0.05875,0.05625 -0.03262,0.06528 -0.08716,0.10051 -0.13,0.18625 -0.02694,0.05391 -0.13107,0.15564 -0.16625,0.1875 0.16132,0.0641 0.14606,-0.03601 0.24125,-0.13125 0.0539,-0.05393 0.11131,-0.09382 0.14875,-0.16875 0.02331,-0.04664 0.0023,-0.1273 -0.035,-0.13 z m -1.835,0.05 c -0.01036,8e-4 -0.0213,0.0032 -0.03375,0.0063 -0.08186,0.02048 -0.11115,0.09246 -0.18625,0.11125 -0.06128,0.01532 -0.15956,0.1408 -0.1875,0.16875 -0.05572,0.05576 -0.07396,0.11206 -0.0925,0.18625 -0.01596,0.06389 -0.10293,0.18708 -0.13125,0.24375 -0.0464,0.09286 -0.09375,0.128916 -0.09375,0.2425 -4e-6,0.0934 0,0.1866 0,0.28 -4e-6,0.09941 0.14941,0.09359 0.225,0.1125 0.10066,0.02518 0.07375,-0.1545 0.07375,-0.225 0,-0.11618 -0.02125,-0.17496 -0.055,-0.2425 -0.01216,-0.02434 0.0044,-0.05279 0.01375,-0.08 -0.0035,-0.01282 -0.0053,-0.0218 -0.005,-0.025 0.0013,0.0011 0.0051,0.0039 0.0088,0.01125 -8e-4,0.0044 -0.0021,0.0092 -0.0037,0.01375 0.01448,0.05288 0.05898,0.17271 0.0975,0.21125 0.09432,0.09438 -0.04354,0.12846 0.1125,0.1675 0.08706,0.02178 0.08529,-0.16025 0.14875,-0.22375 0.06183,-0.06186 0.12721,-0.06955 0.1875,-0.15 0.06812,-0.09089 0.04362,-0.14303 0.13,-0.18625 0.06841,-0.03423 0.0375,-0.21292 0.0375,-0.28 -4e-6,-0.11904 -0.07315,-0.14626 -0.1125,-0.225 -0.03604,-0.07212 -0.06124,-0.1226 -0.13375,-0.1175 z m 0.87625,0.1225 c -0.0052,0.0014 -0.0096,0.0053 -0.01375,0.01375 -0.0082,0.01644 -0.1199,0.16505 -0.1125,0.16875 0.02996,0.01499 0.2463,0.10655 0.2425,0.11125 0.01682,-0.04208 0.07802,-0.10973 0.0375,-0.13 -0.05864,-0.02934 -0.11747,-0.17315 -0.15375,-0.16375 z m -0.0625,0.3475 c -0.02419,-6.24e-4 -0.04954,-4e-5 -0.07375,0.0012 -0.04841,0.0026 -0.09286,0.01159 -0.12,0.03875 -0.05044,0.05048 -0.06066,0.15437 -0.1125,0.20625 -0.03911,0.03914 -0.14564,0.12867 -0.13125,0.18625 0.03994,0.15985 0.05975,0.02983 0.1875,0.09375 0.05876,0.0294 0.24035,0.10106 0.22375,0.1675 0.03279,-0.164038 0.148746,-0.02664 0.14875,-0.18625 0,-0.0934 -4e-6,-0.18661 0,-0.28 0,-0.08301 0.03728,-0.225 -0.055,-0.225 -0.02029,0 -0.04331,-0.0019 -0.0675,-0.0025 z m 0.69625,0.03875 c -0.0037,-4e-4 -0.0087,4e-5 -0.01375,0.0012 -0.03235,0.0081 -0.21091,0.0048 -0.22375,0.05625 -0.0043,0.01724 -0.08235,0.21865 -0.0925,0.22375 -0.07586,0.03796 -0.20058,0.17437 -0.13125,0.24375 0.11316,0.02265 0.13108,-0.01979 0.205,-0.09375 0.06593,-0.06598 0.16806,-0.11109 0.20625,-0.1875 0.03431,-0.06868 0.10649,-0.23905 0.05,-0.24375 z m -0.33,0.08625 c -0.01843,0.02343 -0.02508,0.03071 -0.0375,0.04625 0.01409,-0.01409 0.0257,-0.03023 0.0375,-0.04625 z m 7.515,0.16875 c -0.05094,0.0048 -0.06783,0.04628 -0.08625,0.12 -0.02035,0.08146 0,0.19554 0,0.28 0,0.117764 0.01698,0.16392 0.05625,0.2425 0.03086,0.06176 0,0.23108 0,0.3 0,0.116208 -0.0375,0.13254 -0.0375,0.2425 0,0.03175 -0.01255,0.06137 -0.01875,0.0925 0.01652,0 0.03897,-0.21084 0.05625,-0.28 0.01359,-0.05438 0.07745,-0.13973 0.09375,-0.205 0.02568,-0.102768 0.07375,-0.162244 0.07375,-0.28 0,-0.09967 0.01875,-0.177912 0.01875,-0.28 0,-0.12826 0.03508,-0.19308 -0.0925,-0.225 -0.02613,-0.0065 -0.04677,-0.0091 -0.06375,-0.0075 z m -8.3525,0.14375 c -0.0053,-2e-5 -0.01175,0.0042 -0.02125,0.01375 -0.05788,0.05791 -0.0375,0.3244 -0.0375,0.2425 0.03867,-0.04836 0.09593,-0.25625 0.05875,-0.25625 z m 0.175,0.22375 c -0.04208,0.0018 -0.05552,0.072 -0.1225,0.08875 0.05724,0.01432 0.206982,0.0746 0.20625,0.075 0.246852,-0.09881 0.05066,-0.06181 0,-0.1125 -0.03865,-0.03868 -0.06463,-0.05209 -0.08375,-0.05125 z m -0.1025,0.18125 c -0.01748,0.0013 -0.04012,0.0113 -0.075,0.02 -0.04904,0.01227 -0.201962,0.14043 -0.09375,0.1675 0.0975,0.02439 0.17642,-0.02762 0.2425,-0.09375 -0.03072,-0.07684 -0.04462,-0.09595 -0.07375,-0.09375 z m 11.57375,7.6275 c 0.0096,0.0367 0.02384,0.06892 0.03625,0.1025 -0.0012,-0.03039 -0.01765,-0.06651 -0.03625,-0.1025 z m 0.03625,0.10625 c 0,0.100452 0.01899,0.18715 0.0375,0.26125 8e-4,0.0032 0.0017,0.0045 0.0025,0.0075 -0.0016,-0.02568 -0.0025,-0.05258 -0.0025,-0.08125 0,-0.07876 -0.01802,-0.13451 -0.0375,-0.1875 z m -0.35375,0.13125 c -0.08608,0.0041 -0.177172,0.02777 -0.075,0.13 0.08668,0.08674 0.04923,0.12686 0.07375,0.225 0.0028,-0.0069 0.07177,-0.355004 0.0375,-0.355 -0.0115,0 -0.02395,-5.88e-4 -0.03625,0 z m 0.39375,0.14125 c 0.0049,0.0754 0.0168,0.14089 0.035,0.21375 0.01447,0.05791 0.01656,0.06934 0.0375,0.11125 -0.0062,-0.03113 -0.01255,-0.06137 -0.01875,-0.0925 -0.0215,-0.107552 -0.03226,-0.1468 -0.05375,-0.2325 z"
     id="rect4"
     inkscape:connector-curvature="0" />
  <path
     style="fill:#f42a41;stroke:none"
     d="m 11.804926,8.91175 c -3.5633815,0.6443244 -6.4424002,3.255632 -7.4724979,6.66875 0.00332,0.03164 0.00305,0.06598 -0.00375,0.1 -0.01886,0.09434 -0.01375,0.18493 -0.0375,0.28 -0.016853,0.06745 -0.069387,0.118086 -0.1075,0.17125 -0.014909,0.06277 -0.02883,0.12551 -0.0425,0.18875 l 0,0.21875 c 0,0.1555 -0.01408,0.1629 0.0375,0.15 0.04737,-0.01184 0.10315,-0.03746 0.13125,0.075 0.01445,0.0577 0.03945,0.17838 0.01875,0.26125 -0.01849,0.074 -0.07651,0.19891 -0.05625,0.28 0.01539,0.0616 0.20164,-0.0241 0.18625,0.0375 -0.026187,0.10482 -0.10763,0.09671 -0.13,0.18625 -0.02725,0.108896 0.093426,0.33625 -0.01875,0.33625 -0.01313,0.01314 -0.08969,0.168754 -0.13125,0.16875 -0.01244,0 -0.02637,-0.0056 -0.0375,0 -0.062131,0.03109 -0.1415311,0.0586 -0.21375,0.09 -0.00186,0.07779 -0.00375,0.155508 -0.00375,0.23375 0,0.774711 0.092994,1.527183 0.26625,2.24875 0.00876,0.0075 0.017714,0.01521 0.02625,0.02375 0.026871,0.02689 0.12791,0.1675 0.1675,0.1675 0.0616,0 0.07149,-0.14494 0.13125,-0.13 0.11965,0.02993 0.11125,0.02211 0.11125,0.1675 0,0.27275 -0.1387,0.14728 -0.14875,0.1875 -0.00914,0.0091 -0.0311,0.01197 -0.0375,0.0375 -0.01615,0.06456 -0.018751,0.16944 -0.01875,0.26125 0,0.01461 6.428e-4,0.05373 0.00125,0.0975 0.1066107,0.317078 0.2284014,0.627441 0.36625,0.92875 3.2e-4,2e-4 9.22e-4,-2e-4 0.00125,0 0.019019,0.01241 0.048675,0.075 0.135,0.075 0.090176,0 0.21753,-0.02188 0.29875,0.01875 0.089652,0.04485 0.164692,0.17682 0.29875,0.15 0.044631,-0.0089 0.27829,-0.04944 0.26125,0.01875 -0.03404,0.1363 -0.023244,0.07659 -0.13,0.13 -0.09295,0.04651 -0.14409,0.06313 -0.1875,0.15 -0.03543,0.0709 -0.05599,0.16846 -0.11125,0.22375 -0.016306,0.01632 -0.077892,0.04029 -0.1325,0.06625 1.6631076,2.856861 4.75732,4.7775 8.3012479,4.7775 0.827582,0 1.630114,-0.10559 2.39625,-0.3025 l 0,-0.18875 c 0,-0.0934 -0.066,-0.34604 0,-0.28 0.03173,0.03175 0.05493,0.07234 0.075,0.1125 0.0527,0.10547 0.113356,0.188776 0.145,0.29875 0.292013,-0.08254 0.57876,-0.17998 0.85875,-0.28875 -0.0512,-0.06235 -0.0912,-0.143661 -0.16375,-0.21625 -0.10058,-0.100648 -0.19127,-0.149976 -0.22375,-0.28 -0.0095,-0.03803 -0.0086,-0.2784 -0.01875,-0.29875 -0.06964,-0.01161 -0.2435,-0.02071 -0.28,-0.09375 -0.0409,-0.08185 -0.07626,-0.151202 -0.13125,-0.26125 -0.03258,-0.06519 -0.06746,-0.142272 -0.0925,-0.2425 -0.01346,-0.05386 -0.0067,-0.21166 -0.05625,-0.26125 -0.0619,-0.06194 -0.07293,-0.12705 -0.1125,-0.20625 -0.04476,-0.0896 -0.15554,-0.0925 -0.055,-0.0925 0.09342,0 0.26125,0.03722 0.26125,-0.075 0,-0.13142 0.01105,-0.1826 -0.09375,-0.26125 -0.09171,-0.06882 -0.135188,-0.168754 -0.2425,-0.16875 -0.270892,-4e-6 -0.04395,-0.07383 -0.16875,-0.1675 -0.16658,-0.12502 -0.055,-0.0582 -0.055,-0.1875 0,-0.08534 -0.02034,-0.18941 -0.05625,-0.26125 -0.03792,-0.07588 -0.06991,-0.13852 -0.1125,-0.22375 -0.01005,-0.02012 -0.1347,-0.14992 -0.13,-0.16875 0.02645,-0.10586 0.14744,-0.08506 0.2425,-0.0375 0.09603,0.04804 0.197988,0.10135 0.3175,0.13125 0.11133,0.02785 0.1279,0.0029 0.07375,0.11125 -0.07623,0.15255 -0.01518,0.0932 0.0375,0.225 0.06098,0.15254 0.1322,0.21871 0.20625,0.3175 0.05772,0.07701 0.14837,0.14719 0.1675,0.22375 0.02123,0.08496 0.09383,0.13298 0.14875,0.20625 0.06927,0.09242 0.09298,0.20393 0.15,0.28 0.03971,0.05298 0.12555,0.13981 0.1675,0.22375 0.04743,0.09492 0.075,0.154184 0.075,0.28 0,0.141832 0.0739,0.16635 0.16875,0.26125 0.06028,0.06032 0.12928,0.09336 0.205,0.13125 0.07921,0.03963 0.15431,0.09788 0.22375,0.15 0.05464,0.04101 0.18489,0.08762 0.26125,0.14875 0.101708,0.08142 0.16767,0.13011 0.26125,0.22375 0.02572,0.02574 0.06328,0.05847 0.10125,0.0925 0.47587,-0.25672 0.927949,-0.552054 1.35125,-0.8825 -0.0027,-0.0051 -0.002,-0.0096 0.0037,-0.0125 0.0095,-0.0048 0.01999,-0.0087 0.03,-0.0125 0.242006,-0.19062 0.473839,-0.393654 0.69625,-0.60625 -0.0058,-0.0051 -0.01134,-0.01009 -0.0175,-0.01625 -0.05196,-0.05199 -0.0091,-0.03192 0.03875,-0.005 0.45076,-0.433564 0.859313,-0.909729 1.21875,-1.42375 -4.16e-4,-0.03442 7.52e-4,-0.07096 -0.025,-0.1225 -0.04036,-0.08078 -0.075,-0.07363 -0.075,-0.205 0,-0.14898 -0.06913,-0.16773 -0.0925,-0.26125 -0.01275,-0.05092 0.01148,-0.20075 -0.01875,-0.26125 -0.02046,-0.04094 -0.09378,-0.22501 -0.13125,-0.2625 -0.03099,-0.03101 -0.09801,-0.15202 -0.11125,-0.205 -0.0041,-0.01625 -0.08119,-0.21119 -0.09375,-0.22375 -0.01635,-0.01637 -0.2006,-0.09488 -0.205,-0.1125 -0.01006,-0.0403 -0.08536,-0.202378 -0.1125,-0.09375 -0.01654,0.06619 -0.112496,0.18861 -0.1125,0.2625 0,0.0934 4e-6,0.1866 0,0.28 0,0.09908 0.02237,0.19345 0.05625,0.26125 0.0305,0.06107 0.0375,0.134792 0.0375,0.2425 0,0.104248 -0.005,0.17611 0.0375,0.26125 0.02233,0.04469 0.170472,0.20201 0.0375,0.16875 -0.06249,-0.01564 -0.16459,-0.03456 -0.22375,-0.09375 -0.05658,-0.05662 -0.07665,-0.1687 -0.15,-0.22375 -0.08205,-0.06157 -0.09126,-0.12873 -0.13,-0.20625 -0.03491,-0.06986 -0.05625,-0.158046 -0.05625,-0.26125 0,-0.09962 4e-6,-0.19913 0,-0.29875 0,-0.05472 0.02118,-0.25004 -0.01875,-0.28 -0.229148,-0.17197 0.0375,-0.09729 0.0375,-0.22375 -0.01424,-0.05698 -0.150004,-0.03501 -0.15,-0.09375 0,-0.08805 0.09973,-0.19899 0.0375,-0.26125 -0.01196,-0.01197 -0.18625,-0.13327 -0.18625,-0.15 0,-0.09248 0.02005,-0.22111 -0.01875,-0.29875 -0.04748,-0.09503 -0.1125,-0.10102 -0.1125,-0.14875 0,-0.138524 -0.04825,-0.215456 -0.07375,-0.3175 -0.02814,-0.11266 -0.11781,-0.08558 -0.15,-0.15 -0.0366,-0.07324 0.0419,-0.22264 -0.0375,-0.2425 -0.05727,-0.01433 -0.14111,-0.0034 -0.1675,-0.05625 -0.0254,-0.05082 -0.03548,-0.14061 -0.05625,-0.22375 -0.02272,-0.09094 -0.08881,-0.20392 -0.1125,-0.29875 -0.03387,-0.13558 0.02531,-0.1015 0.13125,-0.075 0.09944,0.02488 0.148754,0.04685 0.14875,-0.09375 0,-0.11996 0.01547,-0.1675 -0.11125,-0.1675 -0.13701,0 -0.15,-0.01712 -0.15,-0.15 0,-0.1434 -0.0128,-0.15 0.05625,-0.15 0.0345,0 0.280004,0.01493 0.28,-0.0175 0,-0.0652 -0.02505,-0.23743 0.01875,-0.28125 0.06925,-0.06929 0.131254,-0.09929 0.13125,-0.22375 0,-0.1203 -0.0375,-0.192326 -0.0375,-0.29875 0,-0.08446 -0.02035,-0.19854 0,-0.28 0.01766,-0.0707 0.22266,-0.0043 0.205,-0.075 -0.0032,-0.0127 -0.05533,-0.13362 -0.0375,-0.205 0.02703,-0.10816 0.09896,-0.0666 0.15,-0.16875 0.03857,-0.07719 0.01332,-0.21651 0.14875,-0.14875 0.112004,0.05604 0.33625,0.2928 0.33625,0.1675 0,-0.0574 -0.02358,-0.11181 -0.0375,-0.1675 -0.02278,-0.09118 -5.6e-4,-0.14939 0.05625,-0.20625 0.06756,-0.0676 0.05625,-0.150966 0.05625,-0.26125 0,-0.07142 -0.09062,-0.20812 -0.075,-0.22375 0.06521,-0.06525 0.161752,-0.06116 0.28,-0.0375 0.112328,0.02248 0.214592,0.0375 0.355,0.0375 0.116908,0 0.20278,-0.0012 0.28,0.0375 0.02846,0.01424 0.22116,0.17013 0.28,0.11125 0.04345,-0.04347 0.07558,-0.12358 0.14875,-0.1675 0.02521,-0.01514 0.28,-0.08185 0.28,-0.09375 l 0,-0.29875 0,-0.28 c 0,-0.05852 0.09254,-0.26863 0.1125,-0.16875 0.02088,0.104484 0.0516,0.16883 0.075,0.2625 0.032,0.12808 0.06772,0.08641 0.1675,0.18625 0.07523,0.07528 0.09288,0.1125 0.2425,0.1125 0.09292,0 0.14671,-0.100274 0.09375,-0.20625 -0.05117,-0.102416 -0.09375,-0.09081 -0.09375,-0.22375 l 0,-0.33625 c 0.03608,0.04814 0.05853,0.11214 0.15,0.14875 0.04316,0.01728 0.09454,0.04859 0.14375,0.0825 -0.720837,-2.720246 -2.605075,-4.967986 -5.088748,-6.175 -0.07338,0.013148 -0.145187,0.025028 -0.22625,0.04125 -0.08422,0.01685 -0.223006,0.01875 -0.336202,0.01875 -0.12276,0 -0.194154,-0.08634 -0.29875,-0.1125 -0.08173,-0.02045 -0.176964,-0.1078 -0.28,-0.05625 -0.07346,0.03676 -0.09334,0.13125 -0.205,0.13125 -0.103372,0 -0.20346,-0.075 -0.28,-0.075 -0.14092,0 -0.08724,-0.07984 -0.1875,-0.13 -0.12328,-0.061676 -0.05503,-0.020012 -0.11125,0.0925 -0.04494,0.08994 -0.07794,0.1125 -0.205,0.1125 l -0.355,0 c -0.109148,0 -0.22599,-0.01654 -0.28,0.0375 -0.06939,0.0694 -0.135832,0.075 -0.28,0.075 -0.12418,0 -0.14801,-0.01836 -0.22375,-0.05625 -0.03946,-0.01974 -0.15329,-0.06176 -0.20625,-0.075 -0.0334,-0.00836 -0.23317,-0.06565 -0.26125,-0.09375 -0.08427,-0.08433 -0.14037,-0.00787 -0.26125,-0.05625 -0.03111,-0.01246 -0.06253,-0.02125 -0.0925,-0.03625 -0.125236,0 -0.141734,-0.02396 -0.24375,-0.075 -0.0728,-0.03642 -0.170028,-0.02874 -0.28,-0.05625 -0.09383,-0.02347 -0.1477,-0.07003 -0.2425,-0.09375 -0.108436,-0.02713 -0.223154,-0.04671 -0.33625,-0.075 -0.101072,-0.025284 -0.157642,-0.08853 -0.26125,-0.13 -0.11376,-0.04553 -0.24311,-0.0393 -0.335,-0.13125 -0.03321,-0.033226 -0.07276,-0.051955 -0.12125,-0.0625 z m 4.43875,16.46625 c -0.0177,0 -0.025,0.02948 -0.025,0.10875 0,0.12946 -0.09628,0.06986 -0.0375,0.1875 0.04765,0.09536 0.05131,0.1477 0.075,0.2425 0.02983,0.119396 -0.0034,0.1939 0.09375,0.2425 0.09053,0.0453 0.112428,0.075 0.2425,0.075 0.06661,0 -0.07436,-0.241864 -0.075,-0.2425 -0.0816,-0.08165 -0.0796,-0.06142 -0.13,-0.1875 -0.0036,0 0.20227,0.079 0.26125,0.09375 0.09822,0.02457 -0.03681,-0.09305 -0.05625,-0.1125 -0.05703,-0.05707 -0.08318,-0.10065 -0.13125,-0.14875 -0.05077,-0.0508 -0.08746,-0.14494 -0.13,-0.1875 -0.04115,-0.04117 -0.06978,-0.07105 -0.0875,-0.07125 z m 0.6775,0.825 c 0,0.0011 0.0022,0.0054 0.0075,0.0125 0.05416,0.07226 0.09375,0.115546 0.09375,0.22375 0,0.08446 -0.02035,0.19854 0,0.28 0.01856,0.07428 0.05248,0.12868 0.11125,0.1875 0.01806,0.01807 0.12484,0.13776 0.16875,0.14875 0.05986,0.01497 0.08626,0.0421 0.11875,0.07875 0.136422,-0.06067 0.270771,-0.12449 0.40375,-0.19125 -0.01804,-0.01293 -0.03612,-0.02814 -0.05625,-0.055 -0.05065,-0.06758 -0.11752,-0.06873 -0.205,-0.1125 -0.01282,-0.0064 -0.205394,-0.10785 -0.20625,-0.11125 -0.02437,-0.09755 -0.0694,-0.10812 -0.13,-0.16875 -0.03556,-0.03558 -0.07745,-0.12183 -0.13125,-0.14875 -0.05553,-0.02778 -0.174492,-0.15155 -0.175,-0.14375 z"
     id="circle6"
     inkscape:connector-curvature="0" />
</svg>
